<svg width="639" height="415" viewBox="0 0 639 415" fill="none" xmlns="http://www.w3.org/2000/svg">
<rect width="639" height="415" fill="#3C3535"/>
<rect width="639" height="415" fill="#D9D9D9"/>
<g filter="url(#filter0_d_0_1)">
<rect x="90" y="101" width="470" height="212" stroke="#ED1C1F" stroke-width="2" stroke-linejoin="round" shape-rendering="crispEdges"/>
</g>
<g filter="url(#filter1_d_0_1)">
<rect x="130" y="140" width="395" height="144" stroke="#1C2DED" stroke-width="2" stroke-linejoin="round" shape-rendering="crispEdges"/>
</g>
<g filter="url(#filter2_d_0_1)">
<rect x="233" y="185" width="174" height="50" fill="#096F15" fill-opacity="0.89" shape-rendering="crispEdges"/>
</g>
<path d="M183.511 95.2131C182.631 95.2131 181.845 94.9882 181.153 94.5384C180.467 94.0838 179.927 93.4375 179.534 92.5994C179.146 91.7566 178.952 90.7457 178.952 89.5668C178.952 88.3878 179.148 87.3793 179.541 86.5412C179.939 85.7031 180.483 85.0616 181.175 84.6165C181.866 84.1714 182.65 83.9489 183.526 83.9489C184.203 83.9489 184.747 84.0625 185.159 84.2898C185.576 84.5123 185.898 84.7727 186.125 85.071C186.357 85.3693 186.537 85.6321 186.665 85.8594H186.793V80.4545H188.916V95H186.842V93.3026H186.665C186.537 93.5346 186.352 93.7997 186.111 94.098C185.874 94.3963 185.547 94.6567 185.131 94.8793C184.714 95.1018 184.174 95.2131 183.511 95.2131ZM183.98 93.402C184.591 93.402 185.107 93.241 185.528 92.919C185.955 92.5923 186.277 92.1402 186.494 91.5625C186.717 90.9848 186.828 90.3125 186.828 89.5455C186.828 88.7879 186.719 88.125 186.501 87.5568C186.284 86.9886 185.964 86.5459 185.543 86.2287C185.121 85.9115 184.6 85.7528 183.98 85.7528C183.341 85.7528 182.808 85.9186 182.382 86.25C181.956 86.5814 181.634 87.0336 181.416 87.6065C181.203 88.1795 181.097 88.8258 181.097 89.5455C181.097 90.2746 181.205 90.9304 181.423 91.5128C181.641 92.0952 181.963 92.5568 182.389 92.8977C182.82 93.2339 183.35 93.402 183.98 93.402ZM191.947 95V84.0909H194.071V95H191.947ZM193.02 82.4077C192.65 82.4077 192.333 82.2846 192.068 82.0384C191.807 81.7874 191.677 81.4891 191.677 81.1435C191.677 80.7931 191.807 80.4948 192.068 80.2486C192.333 79.9976 192.65 79.8722 193.02 79.8722C193.389 79.8722 193.704 79.9976 193.964 80.2486C194.229 80.4948 194.362 80.7931 194.362 81.1435C194.362 81.4891 194.229 81.7874 193.964 82.0384C193.704 82.2846 193.389 82.4077 193.02 82.4077ZM206.26 84.0909L202.304 95H200.031L196.068 84.0909H198.348L201.111 92.4858H201.224L203.98 84.0909H206.26ZM215.914 95L212.703 84.0909H214.898L217.036 92.1023H217.142L219.287 84.0909H221.482L223.613 92.0668H223.719L225.843 84.0909H228.037L224.834 95H222.668L220.452 87.1236H220.289L218.073 95H215.914ZM230.053 95V84.0909H232.176V95H230.053ZM231.125 82.4077C230.756 82.4077 230.438 82.2846 230.173 82.0384C229.913 81.7874 229.783 81.4891 229.783 81.1435C229.783 80.7931 229.913 80.4948 230.173 80.2486C230.438 79.9976 230.756 79.8722 231.125 79.8722C231.494 79.8722 231.809 79.9976 232.07 80.2486C232.335 80.4948 232.467 80.7931 232.467 81.1435C232.467 81.4891 232.335 81.7874 232.07 82.0384C231.809 82.2846 231.494 82.4077 231.125 82.4077ZM240.125 84.0909V85.7955H234.167V84.0909H240.125ZM235.765 81.4773H237.888V91.7969C237.888 92.2088 237.95 92.5189 238.073 92.7273C238.196 92.9309 238.355 93.0705 238.549 93.1463C238.748 93.2173 238.963 93.2528 239.195 93.2528C239.365 93.2528 239.515 93.241 239.642 93.2173C239.77 93.1937 239.87 93.1747 239.941 93.1605L240.324 94.9148C240.201 94.9621 240.026 95.0095 239.799 95.0568C239.571 95.1089 239.287 95.1373 238.946 95.142C238.388 95.1515 237.867 95.0521 237.384 94.8438C236.901 94.6354 236.51 94.3134 236.212 93.8778C235.914 93.4422 235.765 92.8954 235.765 92.2372V81.4773ZM244.832 88.5227V95H242.709V80.4545H244.804V85.8665H244.939C245.195 85.2794 245.585 84.813 246.111 84.4673C246.636 84.1217 247.323 83.9489 248.17 83.9489C248.919 83.9489 249.572 84.1027 250.131 84.4105C250.694 84.7183 251.13 85.1776 251.438 85.7884C251.75 86.3944 251.906 87.152 251.906 88.0611V95H249.783V88.3168C249.783 87.5166 249.577 86.8963 249.165 86.456C248.753 86.0109 248.18 85.7884 247.446 85.7884C246.944 85.7884 246.494 85.8949 246.097 86.108C245.704 86.321 245.393 86.6335 245.166 87.0455C244.944 87.4527 244.832 87.9451 244.832 88.5227ZM263.208 95.2415C262.516 95.2415 261.891 95.1136 261.333 94.858C260.774 94.5975 260.331 94.2211 260.005 93.7287C259.683 93.2363 259.522 92.6326 259.522 91.9176C259.522 91.3021 259.64 90.7955 259.877 90.3977C260.114 90 260.433 89.6851 260.836 89.4531C261.238 89.2211 261.688 89.0459 262.185 88.9276C262.682 88.8092 263.189 88.7192 263.705 88.6577C264.358 88.5819 264.889 88.5204 265.296 88.473C265.703 88.4209 265.999 88.3381 266.184 88.2244C266.368 88.1108 266.461 87.9261 266.461 87.6705V87.6207C266.461 87.0005 266.285 86.5199 265.935 86.179C265.589 85.8381 265.073 85.6676 264.387 85.6676C263.672 85.6676 263.108 85.8262 262.696 86.1435C262.289 86.456 262.007 86.804 261.851 87.1875L259.855 86.733C260.092 86.0701 260.438 85.535 260.892 85.1278C261.352 84.7159 261.88 84.4176 262.476 84.233C263.073 84.0436 263.7 83.9489 264.358 83.9489C264.794 83.9489 265.256 84.0009 265.743 84.1051C266.236 84.2045 266.695 84.3892 267.121 84.6591C267.552 84.929 267.905 85.3149 268.179 85.8168C268.454 86.3139 268.591 86.9602 268.591 87.7557V95H266.517V93.5085H266.432C266.295 93.7831 266.089 94.053 265.814 94.3182C265.54 94.5833 265.187 94.8035 264.756 94.9787C264.325 95.1539 263.809 95.2415 263.208 95.2415ZM263.669 93.5369C264.257 93.5369 264.758 93.4209 265.175 93.1889C265.596 92.9569 265.916 92.6539 266.134 92.2798C266.356 91.901 266.468 91.4962 266.468 91.0653V89.6591C266.392 89.7348 266.245 89.8059 266.027 89.8722C265.814 89.9337 265.57 89.9882 265.296 90.0355C265.021 90.0781 264.754 90.1184 264.493 90.1562C264.233 90.1894 264.015 90.2178 263.84 90.2415C263.428 90.2936 263.051 90.3812 262.711 90.5043C262.374 90.6274 262.105 90.8049 261.901 91.0369C261.702 91.2642 261.603 91.5672 261.603 91.946C261.603 92.4716 261.797 92.8693 262.185 93.1392C262.573 93.4044 263.068 93.5369 263.669 93.5369ZM273.543 88.5227V95H271.42V84.0909H273.458V85.8665H273.593C273.844 85.2888 274.237 84.8248 274.772 84.4744C275.312 84.1241 275.991 83.9489 276.81 83.9489C277.554 83.9489 278.205 84.1051 278.763 84.4176C279.322 84.7254 279.755 85.1847 280.063 85.7955C280.371 86.4062 280.525 87.1615 280.525 88.0611V95H278.401V88.3168C278.401 87.526 278.195 86.9081 277.783 86.4631C277.371 86.0133 276.806 85.7884 276.086 85.7884C275.594 85.7884 275.156 85.8949 274.772 86.108C274.393 86.321 274.093 86.6335 273.87 87.0455C273.652 87.4527 273.543 87.9451 273.543 88.5227ZM293.368 95.2202C292.293 95.2202 291.367 94.9905 290.591 94.5312C289.819 94.0672 289.222 93.4162 288.801 92.5781C288.384 91.7353 288.176 90.7481 288.176 89.6165C288.176 88.4991 288.384 87.5142 288.801 86.6619C289.222 85.8097 289.809 85.1444 290.562 84.6662C291.32 84.188 292.205 83.9489 293.218 83.9489C293.834 83.9489 294.431 84.0507 295.008 84.2543C295.586 84.4579 296.104 84.7775 296.564 85.2131C297.023 85.6487 297.385 86.2145 297.65 86.9105C297.915 87.6018 298.048 88.4422 298.048 89.4318V90.1847H289.376V88.5938H295.967C295.967 88.035 295.853 87.5402 295.626 87.1094C295.399 86.6738 295.079 86.3305 294.667 86.0795C294.26 85.8286 293.782 85.7031 293.233 85.7031C292.636 85.7031 292.115 85.8499 291.67 86.1435C291.23 86.4323 290.889 86.8111 290.647 87.2798C290.411 87.7438 290.292 88.2481 290.292 88.7926V90.0355C290.292 90.7647 290.42 91.3849 290.676 91.8963C290.936 92.4077 291.298 92.7983 291.762 93.0682C292.226 93.3333 292.769 93.4659 293.389 93.4659C293.791 93.4659 294.158 93.4091 294.49 93.2955C294.821 93.1771 295.108 93.0019 295.349 92.7699C295.591 92.5379 295.775 92.2514 295.903 91.9105L297.913 92.2727C297.752 92.8646 297.463 93.383 297.047 93.8281C296.635 94.2685 296.116 94.6117 295.491 94.858C294.871 95.0994 294.163 95.2202 293.368 95.2202ZM309.424 84.0909L305.468 95H303.195L299.232 84.0909H301.512L304.275 92.4858H304.388L307.144 84.0909H309.424ZM315.75 95.2202C314.676 95.2202 313.75 94.9905 312.973 94.5312C312.202 94.0672 311.605 93.4162 311.184 92.5781C310.767 91.7353 310.559 90.7481 310.559 89.6165C310.559 88.4991 310.767 87.5142 311.184 86.6619C311.605 85.8097 312.192 85.1444 312.945 84.6662C313.703 84.188 314.588 83.9489 315.601 83.9489C316.217 83.9489 316.813 84.0507 317.391 84.2543C317.969 84.4579 318.487 84.7775 318.946 85.2131C319.406 85.6487 319.768 86.2145 320.033 86.9105C320.298 87.6018 320.431 88.4422 320.431 89.4318V90.1847H311.759V88.5938H318.35C318.35 88.035 318.236 87.5402 318.009 87.1094C317.782 86.6738 317.462 86.3305 317.05 86.0795C316.643 85.8286 316.165 85.7031 315.615 85.7031C315.019 85.7031 314.498 85.8499 314.053 86.1435C313.613 86.4323 313.272 86.8111 313.03 87.2798C312.793 87.7438 312.675 88.2481 312.675 88.7926V90.0355C312.675 90.7647 312.803 91.3849 313.059 91.8963C313.319 92.4077 313.681 92.7983 314.145 93.0682C314.609 93.3333 315.151 93.4659 315.772 93.4659C316.174 93.4659 316.541 93.4091 316.873 93.2955C317.204 93.1771 317.49 93.0019 317.732 92.7699C317.973 92.5379 318.158 92.2514 318.286 91.9105L320.296 92.2727C320.135 92.8646 319.846 93.383 319.429 93.8281C319.017 94.2685 318.499 94.6117 317.874 94.858C317.254 95.0994 316.546 95.2202 315.75 95.2202ZM324.911 88.5227V95H322.787V84.0909H324.825V85.8665H324.96C325.211 85.2888 325.604 84.8248 326.139 84.4744C326.679 84.1241 327.358 83.9489 328.178 83.9489C328.921 83.9489 329.572 84.1051 330.131 84.4176C330.689 84.7254 331.123 85.1847 331.43 85.7955C331.738 86.4062 331.892 87.1615 331.892 88.0611V95H329.768V88.3168C329.768 87.526 329.563 86.9081 329.151 86.4631C328.739 86.0133 328.173 85.7884 327.453 85.7884C326.961 85.7884 326.523 85.8949 326.139 86.108C325.76 86.321 325.46 86.6335 325.237 87.0455C325.019 87.4527 324.911 87.9451 324.911 88.5227ZM339.832 84.0909V85.7955H333.874V84.0909H339.832ZM335.472 81.4773H337.595V91.7969C337.595 92.2088 337.657 92.5189 337.78 92.7273C337.903 92.9309 338.062 93.0705 338.256 93.1463C338.455 93.2173 338.67 93.2528 338.902 93.2528C339.072 93.2528 339.222 93.241 339.349 93.2173C339.477 93.1937 339.577 93.1747 339.648 93.1605L340.031 94.9148C339.908 94.9621 339.733 95.0095 339.506 95.0568C339.278 95.1089 338.994 95.1373 338.653 95.142C338.095 95.1515 337.574 95.0521 337.091 94.8438C336.608 94.6354 336.217 94.3134 335.919 93.8778C335.621 93.4422 335.472 92.8954 335.472 92.2372V81.4773ZM349.598 80.4545V95H347.474V80.4545H349.598ZM352.455 95V84.0909H354.578V95H352.455ZM353.527 82.4077C353.158 82.4077 352.841 82.2846 352.576 82.0384C352.315 81.7874 352.185 81.4891 352.185 81.1435C352.185 80.7931 352.315 80.4948 352.576 80.2486C352.841 79.9976 353.158 79.8722 353.527 79.8722C353.897 79.8722 354.212 79.9976 354.472 80.2486C354.737 80.4948 354.87 80.7931 354.87 81.1435C354.87 81.4891 354.737 81.7874 354.472 82.0384C354.212 82.2846 353.897 82.4077 353.527 82.4077ZM365.61 86.7543L363.685 87.0952C363.605 86.849 363.477 86.6146 363.302 86.392C363.131 86.1695 362.899 85.9872 362.606 85.8452C362.312 85.7031 361.945 85.6321 361.505 85.6321C360.904 85.6321 360.402 85.767 359.999 86.0369C359.597 86.3021 359.396 86.6454 359.396 87.0668C359.396 87.4313 359.531 87.7249 359.8 87.9474C360.07 88.17 360.506 88.3523 361.107 88.4943L362.84 88.892C363.844 89.1241 364.592 89.4815 365.085 89.9645C365.577 90.4474 365.823 91.0748 365.823 91.8466C365.823 92.5 365.634 93.0824 365.255 93.5938C364.881 94.1004 364.358 94.4981 363.685 94.7869C363.018 95.0758 362.244 95.2202 361.363 95.2202C360.141 95.2202 359.145 94.9598 358.373 94.4389C357.601 93.9134 357.128 93.1676 356.952 92.2017L359.005 91.8892C359.133 92.4242 359.396 92.8291 359.793 93.1037C360.191 93.3736 360.71 93.5085 361.349 93.5085C362.045 93.5085 362.601 93.3641 363.018 93.0753C363.434 92.7817 363.643 92.4242 363.643 92.0028C363.643 91.6619 363.515 91.3755 363.259 91.1435C363.008 90.9115 362.622 90.7363 362.102 90.6179L360.255 90.2131C359.237 89.9811 358.484 89.6117 357.996 89.1051C357.513 88.5985 357.272 87.9569 357.272 87.1804C357.272 86.5365 357.452 85.973 357.812 85.4901C358.172 85.0071 358.669 84.6307 359.303 84.3608C359.938 84.0862 360.665 83.9489 361.484 83.9489C362.663 83.9489 363.591 84.2045 364.268 84.7159C364.945 85.2225 365.392 85.902 365.61 86.7543ZM373.25 84.0909V85.7955H367.292V84.0909H373.25ZM368.89 81.4773H371.013V91.7969C371.013 92.2088 371.075 92.5189 371.198 92.7273C371.321 92.9309 371.48 93.0705 371.674 93.1463C371.873 93.2173 372.088 93.2528 372.32 93.2528C372.49 93.2528 372.64 93.241 372.767 93.2173C372.895 93.1937 372.995 93.1747 373.066 93.1605L373.449 94.9148C373.326 94.9621 373.151 95.0095 372.924 95.0568C372.696 95.1089 372.412 95.1373 372.071 95.142C371.513 95.1515 370.992 95.0521 370.509 94.8438C370.026 94.6354 369.635 94.3134 369.337 93.8778C369.039 93.4422 368.89 92.8954 368.89 92.2372V81.4773ZM380.184 95.2202C379.109 95.2202 378.183 94.9905 377.407 94.5312C376.635 94.0672 376.039 93.4162 375.617 92.5781C375.201 91.7353 374.992 90.7481 374.992 89.6165C374.992 88.4991 375.201 87.5142 375.617 86.6619C376.039 85.8097 376.626 85.1444 377.379 84.6662C378.136 84.188 379.022 83.9489 380.035 83.9489C380.65 83.9489 381.247 84.0507 381.825 84.2543C382.402 84.4579 382.921 84.7775 383.38 85.2131C383.839 85.6487 384.201 86.2145 384.467 86.9105C384.732 87.6018 384.864 88.4422 384.864 89.4318V90.1847H376.192V88.5938H382.783C382.783 88.035 382.67 87.5402 382.442 87.1094C382.215 86.6738 381.896 86.3305 381.484 86.0795C381.076 85.8286 380.598 85.7031 380.049 85.7031C379.452 85.7031 378.932 85.8499 378.487 86.1435C378.046 86.4323 377.705 86.8111 377.464 87.2798C377.227 87.7438 377.109 88.2481 377.109 88.7926V90.0355C377.109 90.7647 377.237 91.3849 377.492 91.8963C377.753 92.4077 378.115 92.7983 378.579 93.0682C379.043 93.3333 379.585 93.4659 380.205 93.4659C380.608 93.4659 380.975 93.4091 381.306 93.2955C381.638 93.1771 381.924 93.0019 382.165 92.7699C382.407 92.5379 382.592 92.2514 382.719 91.9105L384.729 92.2727C384.568 92.8646 384.28 93.383 383.863 93.8281C383.451 94.2685 382.933 94.6117 382.308 94.858C381.687 95.0994 380.979 95.2202 380.184 95.2202ZM389.344 88.5227V95H387.221V84.0909H389.259V85.8665H389.394C389.645 85.2888 390.038 84.8248 390.573 84.4744C391.113 84.1241 391.792 83.9489 392.611 83.9489C393.355 83.9489 394.006 84.1051 394.564 84.4176C395.123 84.7254 395.556 85.1847 395.864 85.7955C396.172 86.4062 396.326 87.1615 396.326 88.0611V95H394.202V88.3168C394.202 87.526 393.996 86.9081 393.584 86.4631C393.172 86.0133 392.606 85.7884 391.887 85.7884C391.394 85.7884 390.956 85.8949 390.573 86.108C390.194 86.321 389.893 86.6335 389.671 87.0455C389.453 87.4527 389.344 87.9451 389.344 88.5227ZM403.875 95.2202C402.801 95.2202 401.875 94.9905 401.098 94.5312C400.327 94.0672 399.73 93.4162 399.309 92.5781C398.892 91.7353 398.684 90.7481 398.684 89.6165C398.684 88.4991 398.892 87.5142 399.309 86.6619C399.73 85.8097 400.317 85.1444 401.07 84.6662C401.828 84.188 402.713 83.9489 403.726 83.9489C404.342 83.9489 404.938 84.0507 405.516 84.2543C406.094 84.4579 406.612 84.7775 407.071 85.2131C407.531 85.6487 407.893 86.2145 408.158 86.9105C408.423 87.6018 408.556 88.4422 408.556 89.4318V90.1847H399.884V88.5938H406.475C406.475 88.035 406.361 87.5402 406.134 87.1094C405.907 86.6738 405.587 86.3305 405.175 86.0795C404.768 85.8286 404.29 85.7031 403.74 85.7031C403.144 85.7031 402.623 85.8499 402.178 86.1435C401.738 86.4323 401.397 86.8111 401.155 87.2798C400.918 87.7438 400.8 88.2481 400.8 88.7926V90.0355C400.8 90.7647 400.928 91.3849 401.184 91.8963C401.444 92.4077 401.806 92.7983 402.27 93.0682C402.734 93.3333 403.276 93.4659 403.897 93.4659C404.299 93.4659 404.666 93.4091 404.998 93.2955C405.329 93.1771 405.615 93.0019 405.857 92.7699C406.098 92.5379 406.283 92.2514 406.411 91.9105L408.421 92.2727C408.26 92.8646 407.971 93.383 407.554 93.8281C407.142 94.2685 406.624 94.6117 405.999 94.858C405.379 95.0994 404.671 95.2202 403.875 95.2202ZM410.912 95V84.0909H412.964V85.8239H413.078C413.277 85.2367 413.627 84.7751 414.129 84.4389C414.636 84.098 415.209 83.9276 415.848 83.9276C415.981 83.9276 416.137 83.9323 416.317 83.9418C416.501 83.9512 416.646 83.9631 416.75 83.9773V86.0085C416.665 85.9848 416.513 85.9588 416.295 85.9304C416.078 85.8973 415.86 85.8807 415.642 85.8807C415.14 85.8807 414.693 85.9872 414.3 86.2003C413.911 86.4086 413.604 86.6998 413.376 87.0739C413.149 87.4432 413.036 87.8646 413.036 88.3381V95H410.912Z" fill="#D81717"/>
<path d="M191.511 137.213C190.631 137.213 189.845 136.988 189.153 136.538C188.467 136.084 187.927 135.437 187.534 134.599C187.146 133.757 186.952 132.746 186.952 131.567C186.952 130.388 187.148 129.379 187.541 128.541C187.939 127.703 188.483 127.062 189.175 126.616C189.866 126.171 190.65 125.949 191.526 125.949C192.203 125.949 192.747 126.062 193.159 126.29C193.576 126.512 193.898 126.773 194.125 127.071C194.357 127.369 194.537 127.632 194.665 127.859H194.793V122.455H196.916V137H194.842V135.303H194.665C194.537 135.535 194.352 135.8 194.111 136.098C193.874 136.396 193.547 136.657 193.131 136.879C192.714 137.102 192.174 137.213 191.511 137.213ZM191.98 135.402C192.591 135.402 193.107 135.241 193.528 134.919C193.955 134.592 194.277 134.14 194.494 133.562C194.717 132.985 194.828 132.312 194.828 131.545C194.828 130.788 194.719 130.125 194.501 129.557C194.284 128.989 193.964 128.546 193.543 128.229C193.121 127.911 192.6 127.753 191.98 127.753C191.341 127.753 190.808 127.919 190.382 128.25C189.956 128.581 189.634 129.034 189.416 129.607C189.203 130.179 189.097 130.826 189.097 131.545C189.097 132.275 189.205 132.93 189.423 133.513C189.641 134.095 189.963 134.557 190.389 134.898C190.82 135.234 191.35 135.402 191.98 135.402ZM199.947 137V126.091H202.071V137H199.947ZM201.02 124.408C200.65 124.408 200.333 124.285 200.068 124.038C199.807 123.787 199.677 123.489 199.677 123.143C199.677 122.793 199.807 122.495 200.068 122.249C200.333 121.998 200.65 121.872 201.02 121.872C201.389 121.872 201.704 121.998 201.964 122.249C202.229 122.495 202.362 122.793 202.362 123.143C202.362 123.489 202.229 123.787 201.964 124.038C201.704 124.285 201.389 124.408 201.02 124.408ZM214.26 126.091L210.304 137H208.031L204.068 126.091H206.348L209.111 134.486H209.224L211.98 126.091H214.26ZM223.914 137L220.703 126.091H222.898L225.036 134.102H225.142L227.287 126.091H229.482L231.613 134.067H231.719L233.843 126.091H236.037L232.834 137H230.668L228.452 129.124H228.289L226.073 137H223.914ZM238.053 137V126.091H240.176V137H238.053ZM239.125 124.408C238.756 124.408 238.438 124.285 238.173 124.038C237.913 123.787 237.783 123.489 237.783 123.143C237.783 122.793 237.913 122.495 238.173 122.249C238.438 121.998 238.756 121.872 239.125 121.872C239.494 121.872 239.809 121.998 240.07 122.249C240.335 122.495 240.467 122.793 240.467 123.143C240.467 123.489 240.335 123.787 240.07 124.038C239.809 124.285 239.494 124.408 239.125 124.408ZM248.125 126.091V127.795H242.167V126.091H248.125ZM243.765 123.477H245.888V133.797C245.888 134.209 245.95 134.519 246.073 134.727C246.196 134.931 246.355 135.071 246.549 135.146C246.748 135.217 246.963 135.253 247.195 135.253C247.365 135.253 247.515 135.241 247.642 135.217C247.77 135.194 247.87 135.175 247.941 135.161L248.324 136.915C248.201 136.962 248.026 137.009 247.799 137.057C247.571 137.109 247.287 137.137 246.946 137.142C246.388 137.152 245.867 137.052 245.384 136.844C244.901 136.635 244.51 136.313 244.212 135.878C243.914 135.442 243.765 134.895 243.765 134.237V123.477ZM252.832 130.523V137H250.709V122.455H252.804V127.866H252.939C253.195 127.279 253.585 126.813 254.111 126.467C254.636 126.122 255.323 125.949 256.17 125.949C256.919 125.949 257.572 126.103 258.131 126.411C258.694 126.718 259.13 127.178 259.438 127.788C259.75 128.394 259.906 129.152 259.906 130.061V137H257.783V130.317C257.783 129.517 257.577 128.896 257.165 128.456C256.753 128.011 256.18 127.788 255.446 127.788C254.944 127.788 254.494 127.895 254.097 128.108C253.704 128.321 253.393 128.634 253.166 129.045C252.944 129.453 252.832 129.945 252.832 130.523ZM271.208 137.241C270.516 137.241 269.891 137.114 269.333 136.858C268.774 136.598 268.331 136.221 268.005 135.729C267.683 135.236 267.522 134.633 267.522 133.918C267.522 133.302 267.64 132.795 267.877 132.398C268.114 132 268.433 131.685 268.836 131.453C269.238 131.221 269.688 131.046 270.185 130.928C270.682 130.809 271.189 130.719 271.705 130.658C272.358 130.582 272.889 130.52 273.296 130.473C273.703 130.421 273.999 130.338 274.184 130.224C274.368 130.111 274.461 129.926 274.461 129.67V129.621C274.461 129 274.285 128.52 273.935 128.179C273.589 127.838 273.073 127.668 272.387 127.668C271.672 127.668 271.108 127.826 270.696 128.143C270.289 128.456 270.007 128.804 269.851 129.188L267.855 128.733C268.092 128.07 268.438 127.535 268.892 127.128C269.352 126.716 269.88 126.418 270.476 126.233C271.073 126.044 271.7 125.949 272.358 125.949C272.794 125.949 273.256 126.001 273.743 126.105C274.236 126.205 274.695 126.389 275.121 126.659C275.552 126.929 275.905 127.315 276.179 127.817C276.454 128.314 276.591 128.96 276.591 129.756V137H274.517V135.509H274.432C274.295 135.783 274.089 136.053 273.814 136.318C273.54 136.583 273.187 136.804 272.756 136.979C272.325 137.154 271.809 137.241 271.208 137.241ZM271.669 135.537C272.257 135.537 272.758 135.421 273.175 135.189C273.596 134.957 273.916 134.654 274.134 134.28C274.356 133.901 274.468 133.496 274.468 133.065V131.659C274.392 131.735 274.245 131.806 274.027 131.872C273.814 131.934 273.57 131.988 273.296 132.036C273.021 132.078 272.754 132.118 272.493 132.156C272.233 132.189 272.015 132.218 271.84 132.241C271.428 132.294 271.051 132.381 270.711 132.504C270.374 132.627 270.105 132.805 269.901 133.037C269.702 133.264 269.603 133.567 269.603 133.946C269.603 134.472 269.797 134.869 270.185 135.139C270.573 135.404 271.068 135.537 271.669 135.537ZM281.543 130.523V137H279.42V126.091H281.458V127.866H281.593C281.844 127.289 282.237 126.825 282.772 126.474C283.312 126.124 283.991 125.949 284.81 125.949C285.554 125.949 286.205 126.105 286.763 126.418C287.322 126.725 287.755 127.185 288.063 127.795C288.371 128.406 288.525 129.161 288.525 130.061V137H286.401V130.317C286.401 129.526 286.195 128.908 285.783 128.463C285.371 128.013 284.806 127.788 284.086 127.788C283.594 127.788 283.156 127.895 282.772 128.108C282.393 128.321 282.093 128.634 281.87 129.045C281.652 129.453 281.543 129.945 281.543 130.523ZM301.368 137.22C300.293 137.22 299.367 136.991 298.591 136.531C297.819 136.067 297.222 135.416 296.801 134.578C296.384 133.735 296.176 132.748 296.176 131.616C296.176 130.499 296.384 129.514 296.801 128.662C297.222 127.81 297.809 127.144 298.562 126.666C299.32 126.188 300.205 125.949 301.218 125.949C301.834 125.949 302.431 126.051 303.008 126.254C303.586 126.458 304.104 126.777 304.564 127.213C305.023 127.649 305.385 128.214 305.65 128.911C305.915 129.602 306.048 130.442 306.048 131.432V132.185H297.376V130.594H303.967C303.967 130.035 303.853 129.54 303.626 129.109C303.399 128.674 303.079 128.33 302.667 128.08C302.26 127.829 301.782 127.703 301.233 127.703C300.636 127.703 300.115 127.85 299.67 128.143C299.23 128.432 298.889 128.811 298.647 129.28C298.411 129.744 298.292 130.248 298.292 130.793V132.036C298.292 132.765 298.42 133.385 298.676 133.896C298.936 134.408 299.298 134.798 299.762 135.068C300.226 135.333 300.769 135.466 301.389 135.466C301.791 135.466 302.158 135.409 302.49 135.295C302.821 135.177 303.108 135.002 303.349 134.77C303.591 134.538 303.775 134.251 303.903 133.911L305.913 134.273C305.752 134.865 305.463 135.383 305.047 135.828C304.635 136.268 304.116 136.612 303.491 136.858C302.871 137.099 302.163 137.22 301.368 137.22ZM317.424 126.091L313.468 137H311.195L307.232 126.091H309.512L312.275 134.486H312.388L315.144 126.091H317.424ZM323.75 137.22C322.676 137.22 321.75 136.991 320.973 136.531C320.202 136.067 319.605 135.416 319.184 134.578C318.767 133.735 318.559 132.748 318.559 131.616C318.559 130.499 318.767 129.514 319.184 128.662C319.605 127.81 320.192 127.144 320.945 126.666C321.703 126.188 322.588 125.949 323.601 125.949C324.217 125.949 324.813 126.051 325.391 126.254C325.969 126.458 326.487 126.777 326.946 127.213C327.406 127.649 327.768 128.214 328.033 128.911C328.298 129.602 328.431 130.442 328.431 131.432V132.185H319.759V130.594H326.35C326.35 130.035 326.236 129.54 326.009 129.109C325.782 128.674 325.462 128.33 325.05 128.08C324.643 127.829 324.165 127.703 323.615 127.703C323.019 127.703 322.498 127.85 322.053 128.143C321.613 128.432 321.272 128.811 321.03 129.28C320.793 129.744 320.675 130.248 320.675 130.793V132.036C320.675 132.765 320.803 133.385 321.059 133.896C321.319 134.408 321.681 134.798 322.145 135.068C322.609 135.333 323.151 135.466 323.772 135.466C324.174 135.466 324.541 135.409 324.873 135.295C325.204 135.177 325.49 135.002 325.732 134.77C325.973 134.538 326.158 134.251 326.286 133.911L328.296 134.273C328.135 134.865 327.846 135.383 327.429 135.828C327.017 136.268 326.499 136.612 325.874 136.858C325.254 137.099 324.546 137.22 323.75 137.22ZM332.911 130.523V137H330.787V126.091H332.825V127.866H332.96C333.211 127.289 333.604 126.825 334.139 126.474C334.679 126.124 335.358 125.949 336.178 125.949C336.921 125.949 337.572 126.105 338.131 126.418C338.689 126.725 339.123 127.185 339.43 127.795C339.738 128.406 339.892 129.161 339.892 130.061V137H337.768V130.317C337.768 129.526 337.563 128.908 337.151 128.463C336.739 128.013 336.173 127.788 335.453 127.788C334.961 127.788 334.523 127.895 334.139 128.108C333.76 128.321 333.46 128.634 333.237 129.045C333.019 129.453 332.911 129.945 332.911 130.523ZM347.832 126.091V127.795H341.874V126.091H347.832ZM343.472 123.477H345.595V133.797C345.595 134.209 345.657 134.519 345.78 134.727C345.903 134.931 346.062 135.071 346.256 135.146C346.455 135.217 346.67 135.253 346.902 135.253C347.072 135.253 347.222 135.241 347.349 135.217C347.477 135.194 347.577 135.175 347.648 135.161L348.031 136.915C347.908 136.962 347.733 137.009 347.506 137.057C347.278 137.109 346.994 137.137 346.653 137.142C346.095 137.152 345.574 137.052 345.091 136.844C344.608 136.635 344.217 136.313 343.919 135.878C343.621 135.442 343.472 134.895 343.472 134.237V123.477ZM357.598 122.455V137H355.474V122.455H357.598ZM360.455 137V126.091H362.578V137H360.455ZM361.527 124.408C361.158 124.408 360.841 124.285 360.576 124.038C360.315 123.787 360.185 123.489 360.185 123.143C360.185 122.793 360.315 122.495 360.576 122.249C360.841 121.998 361.158 121.872 361.527 121.872C361.897 121.872 362.212 121.998 362.472 122.249C362.737 122.495 362.87 122.793 362.87 123.143C362.87 123.489 362.737 123.787 362.472 124.038C362.212 124.285 361.897 124.408 361.527 124.408ZM373.61 128.754L371.685 129.095C371.605 128.849 371.477 128.615 371.302 128.392C371.131 128.17 370.899 127.987 370.606 127.845C370.312 127.703 369.945 127.632 369.505 127.632C368.904 127.632 368.402 127.767 367.999 128.037C367.597 128.302 367.396 128.645 367.396 129.067C367.396 129.431 367.531 129.725 367.8 129.947C368.07 130.17 368.506 130.352 369.107 130.494L370.84 130.892C371.844 131.124 372.592 131.482 373.085 131.964C373.577 132.447 373.823 133.075 373.823 133.847C373.823 134.5 373.634 135.082 373.255 135.594C372.881 136.1 372.358 136.498 371.685 136.787C371.018 137.076 370.244 137.22 369.363 137.22C368.141 137.22 367.145 136.96 366.373 136.439C365.601 135.913 365.128 135.168 364.952 134.202L367.005 133.889C367.133 134.424 367.396 134.829 367.793 135.104C368.191 135.374 368.71 135.509 369.349 135.509C370.045 135.509 370.601 135.364 371.018 135.075C371.434 134.782 371.643 134.424 371.643 134.003C371.643 133.662 371.515 133.375 371.259 133.143C371.008 132.911 370.622 132.736 370.102 132.618L368.255 132.213C367.237 131.981 366.484 131.612 365.996 131.105C365.513 130.598 365.272 129.957 365.272 129.18C365.272 128.536 365.452 127.973 365.812 127.49C366.172 127.007 366.669 126.631 367.303 126.361C367.938 126.086 368.665 125.949 369.484 125.949C370.663 125.949 371.591 126.205 372.268 126.716C372.945 127.223 373.392 127.902 373.61 128.754ZM381.25 126.091V127.795H375.292V126.091H381.25ZM376.89 123.477H379.013V133.797C379.013 134.209 379.075 134.519 379.198 134.727C379.321 134.931 379.48 135.071 379.674 135.146C379.873 135.217 380.088 135.253 380.32 135.253C380.49 135.253 380.64 135.241 380.767 135.217C380.895 135.194 380.995 135.175 381.066 135.161L381.449 136.915C381.326 136.962 381.151 137.009 380.924 137.057C380.696 137.109 380.412 137.137 380.071 137.142C379.513 137.152 378.992 137.052 378.509 136.844C378.026 136.635 377.635 136.313 377.337 135.878C377.039 135.442 376.89 134.895 376.89 134.237V123.477ZM388.184 137.22C387.109 137.22 386.183 136.991 385.407 136.531C384.635 136.067 384.039 135.416 383.617 134.578C383.201 133.735 382.992 132.748 382.992 131.616C382.992 130.499 383.201 129.514 383.617 128.662C384.039 127.81 384.626 127.144 385.379 126.666C386.136 126.188 387.022 125.949 388.035 125.949C388.65 125.949 389.247 126.051 389.825 126.254C390.402 126.458 390.921 126.777 391.38 127.213C391.839 127.649 392.201 128.214 392.467 128.911C392.732 129.602 392.864 130.442 392.864 131.432V132.185H384.192V130.594H390.783C390.783 130.035 390.67 129.54 390.442 129.109C390.215 128.674 389.896 128.33 389.484 128.08C389.076 127.829 388.598 127.703 388.049 127.703C387.452 127.703 386.932 127.85 386.487 128.143C386.046 128.432 385.705 128.811 385.464 129.28C385.227 129.744 385.109 130.248 385.109 130.793V132.036C385.109 132.765 385.237 133.385 385.492 133.896C385.753 134.408 386.115 134.798 386.579 135.068C387.043 135.333 387.585 135.466 388.205 135.466C388.608 135.466 388.975 135.409 389.306 135.295C389.638 135.177 389.924 135.002 390.165 134.77C390.407 134.538 390.592 134.251 390.719 133.911L392.729 134.273C392.568 134.865 392.28 135.383 391.863 135.828C391.451 136.268 390.933 136.612 390.308 136.858C389.687 137.099 388.979 137.22 388.184 137.22ZM397.344 130.523V137H395.221V126.091H397.259V127.866H397.394C397.645 127.289 398.038 126.825 398.573 126.474C399.113 126.124 399.792 125.949 400.611 125.949C401.355 125.949 402.006 126.105 402.564 126.418C403.123 126.725 403.556 127.185 403.864 127.795C404.172 128.406 404.326 129.161 404.326 130.061V137H402.202V130.317C402.202 129.526 401.996 128.908 401.584 128.463C401.172 128.013 400.606 127.788 399.887 127.788C399.394 127.788 398.956 127.895 398.573 128.108C398.194 128.321 397.893 128.634 397.671 129.045C397.453 129.453 397.344 129.945 397.344 130.523ZM411.875 137.22C410.801 137.22 409.875 136.991 409.098 136.531C408.327 136.067 407.73 135.416 407.309 134.578C406.892 133.735 406.684 132.748 406.684 131.616C406.684 130.499 406.892 129.514 407.309 128.662C407.73 127.81 408.317 127.144 409.07 126.666C409.828 126.188 410.713 125.949 411.726 125.949C412.342 125.949 412.938 126.051 413.516 126.254C414.094 126.458 414.612 126.777 415.071 127.213C415.531 127.649 415.893 128.214 416.158 128.911C416.423 129.602 416.556 130.442 416.556 131.432V132.185H407.884V130.594H414.475C414.475 130.035 414.361 129.54 414.134 129.109C413.907 128.674 413.587 128.33 413.175 128.08C412.768 127.829 412.29 127.703 411.74 127.703C411.144 127.703 410.623 127.85 410.178 128.143C409.738 128.432 409.397 128.811 409.155 129.28C408.918 129.744 408.8 130.248 408.8 130.793V132.036C408.8 132.765 408.928 133.385 409.184 133.896C409.444 134.408 409.806 134.798 410.27 135.068C410.734 135.333 411.276 135.466 411.897 135.466C412.299 135.466 412.666 135.409 412.998 135.295C413.329 135.177 413.615 135.002 413.857 134.77C414.098 134.538 414.283 134.251 414.411 133.911L416.421 134.273C416.26 134.865 415.971 135.383 415.554 135.828C415.142 136.268 414.624 136.612 413.999 136.858C413.379 137.099 412.671 137.22 411.875 137.22ZM418.912 137V126.091H420.964V127.824H421.078C421.277 127.237 421.627 126.775 422.129 126.439C422.636 126.098 423.209 125.928 423.848 125.928C423.981 125.928 424.137 125.932 424.317 125.942C424.501 125.951 424.646 125.963 424.75 125.977V128.009C424.665 127.985 424.513 127.959 424.295 127.93C424.078 127.897 423.86 127.881 423.642 127.881C423.14 127.881 422.693 127.987 422.3 128.2C421.911 128.409 421.604 128.7 421.376 129.074C421.149 129.443 421.036 129.865 421.036 130.338V137H418.912Z" fill="#2A23B2"/>
<path d="M176.598 179V164.455H181.925C182.957 164.455 183.812 164.625 184.489 164.966C185.166 165.302 185.672 165.759 186.009 166.337C186.345 166.91 186.513 167.556 186.513 168.276C186.513 168.882 186.402 169.393 186.179 169.81C185.956 170.222 185.658 170.553 185.284 170.804C184.915 171.05 184.508 171.23 184.062 171.344V171.486C184.545 171.509 185.017 171.666 185.476 171.955C185.94 172.239 186.323 172.643 186.626 173.169C186.929 173.695 187.081 174.334 187.081 175.087C187.081 175.83 186.906 176.498 186.555 177.089C186.21 177.677 185.675 178.143 184.95 178.489C184.226 178.83 183.3 179 182.173 179H176.598ZM178.793 177.118H181.96C183.011 177.118 183.764 176.914 184.219 176.507C184.673 176.1 184.901 175.591 184.901 174.98C184.901 174.521 184.785 174.099 184.553 173.716C184.321 173.332 183.989 173.027 183.558 172.8C183.132 172.572 182.625 172.459 182.038 172.459H178.793V177.118ZM178.793 170.747H181.733C182.225 170.747 182.668 170.652 183.061 170.463C183.459 170.274 183.774 170.009 184.006 169.668C184.242 169.322 184.361 168.915 184.361 168.446C184.361 167.845 184.15 167.34 183.729 166.933C183.307 166.526 182.661 166.322 181.79 166.322H178.793V170.747ZM196.424 174.476V168.091H198.555V179H196.467V177.111H196.353C196.102 177.693 195.7 178.179 195.146 178.567C194.596 178.95 193.912 179.142 193.093 179.142C192.392 179.142 191.772 178.988 191.232 178.68C190.697 178.368 190.276 177.906 189.968 177.295C189.665 176.685 189.513 175.929 189.513 175.03V168.091H191.637V174.774C191.637 175.518 191.843 176.109 192.255 176.55C192.667 176.99 193.202 177.21 193.86 177.21C194.258 177.21 194.653 177.111 195.046 176.912C195.444 176.713 195.773 176.412 196.033 176.01C196.299 175.607 196.429 175.096 196.424 174.476ZM206.5 168.091V169.795H200.542V168.091H206.5ZM202.14 165.477H204.263V175.797C204.263 176.209 204.325 176.519 204.448 176.727C204.571 176.931 204.73 177.071 204.924 177.146C205.123 177.217 205.338 177.253 205.57 177.253C205.74 177.253 205.89 177.241 206.017 177.217C206.145 177.194 206.245 177.175 206.316 177.161L206.699 178.915C206.576 178.962 206.401 179.009 206.174 179.057C205.946 179.109 205.662 179.137 205.321 179.142C204.763 179.152 204.242 179.052 203.759 178.844C203.276 178.635 202.885 178.313 202.587 177.878C202.289 177.442 202.14 176.895 202.14 176.237V165.477ZM213.942 168.091V169.795H207.983V168.091H213.942ZM209.581 165.477H211.705V175.797C211.705 176.209 211.766 176.519 211.889 176.727C212.012 176.931 212.171 177.071 212.365 177.146C212.564 177.217 212.779 177.253 213.011 177.253C213.182 177.253 213.331 177.241 213.459 177.217C213.587 177.194 213.686 177.175 213.757 177.161L214.141 178.915C214.018 178.962 213.842 179.009 213.615 179.057C213.388 179.109 213.104 179.137 212.763 179.142C212.204 179.152 211.683 179.052 211.2 178.844C210.717 178.635 210.327 178.313 210.028 177.878C209.73 177.442 209.581 176.895 209.581 176.237V165.477ZM220.769 179.22C219.746 179.22 218.854 178.986 218.091 178.517C217.329 178.048 216.737 177.393 216.316 176.55C215.894 175.707 215.684 174.722 215.684 173.595C215.684 172.464 215.894 171.474 216.316 170.626C216.737 169.779 217.329 169.121 218.091 168.652C218.854 168.183 219.746 167.949 220.769 167.949C221.792 167.949 222.684 168.183 223.446 168.652C224.209 169.121 224.801 169.779 225.222 170.626C225.643 171.474 225.854 172.464 225.854 173.595C225.854 174.722 225.643 175.707 225.222 176.55C224.801 177.393 224.209 178.048 223.446 178.517C222.684 178.986 221.792 179.22 220.769 179.22ZM220.776 177.438C221.439 177.438 221.988 177.262 222.424 176.912C222.859 176.562 223.181 176.095 223.39 175.513C223.603 174.93 223.709 174.289 223.709 173.588C223.709 172.892 223.603 172.253 223.39 171.67C223.181 171.083 222.859 170.612 222.424 170.257C221.988 169.902 221.439 169.724 220.776 169.724C220.108 169.724 219.554 169.902 219.114 170.257C218.678 170.612 218.354 171.083 218.141 171.67C217.933 172.253 217.828 172.892 217.828 173.588C217.828 174.289 217.933 174.93 218.141 175.513C218.354 176.095 218.678 176.562 219.114 176.912C219.554 177.262 220.108 177.438 220.776 177.438ZM230.348 172.523V179H228.224V168.091H230.263V169.866H230.398C230.649 169.289 231.042 168.825 231.577 168.474C232.116 168.124 232.796 167.949 233.615 167.949C234.358 167.949 235.009 168.105 235.568 168.418C236.127 168.725 236.56 169.185 236.868 169.795C237.176 170.406 237.33 171.161 237.33 172.061V179H235.206V172.317C235.206 171.526 235 170.908 234.588 170.463C234.176 170.013 233.61 169.788 232.891 169.788C232.398 169.788 231.96 169.895 231.577 170.108C231.198 170.321 230.897 170.634 230.675 171.045C230.457 171.453 230.348 171.945 230.348 172.523ZM247.836 179L244.625 168.091H246.82L248.958 176.102H249.064L251.209 168.091H253.404L255.534 176.067H255.641L257.765 168.091H259.959L256.756 179H254.59L252.374 171.124H252.211L249.995 179H247.836ZM261.974 179V168.091H264.098V179H261.974ZM263.047 166.408C262.678 166.408 262.36 166.285 262.095 166.038C261.835 165.787 261.705 165.489 261.705 165.143C261.705 164.793 261.835 164.495 262.095 164.249C262.36 163.998 262.678 163.872 263.047 163.872C263.416 163.872 263.731 163.998 263.991 164.249C264.257 164.495 264.389 164.793 264.389 165.143C264.389 165.489 264.257 165.787 263.991 166.038C263.731 166.285 263.416 166.408 263.047 166.408ZM272.047 168.091V169.795H266.088V168.091H272.047ZM267.686 165.477H269.81V175.797C269.81 176.209 269.872 176.519 269.995 176.727C270.118 176.931 270.276 177.071 270.471 177.146C270.669 177.217 270.885 177.253 271.117 177.253C271.287 177.253 271.436 177.241 271.564 177.217C271.692 177.194 271.792 177.175 271.863 177.161L272.246 178.915C272.123 178.962 271.948 179.009 271.721 179.057C271.493 179.109 271.209 179.137 270.868 179.142C270.31 179.152 269.789 179.052 269.306 178.844C268.823 178.635 268.432 178.313 268.134 177.878C267.836 177.442 267.686 176.895 267.686 176.237V165.477ZM276.754 172.523V179H274.631V164.455H276.726V169.866H276.861C277.116 169.279 277.507 168.813 278.033 168.467C278.558 168.122 279.245 167.949 280.092 167.949C280.84 167.949 281.494 168.103 282.053 168.411C282.616 168.718 283.052 169.178 283.359 169.788C283.672 170.394 283.828 171.152 283.828 172.061V179H281.705V172.317C281.705 171.517 281.499 170.896 281.087 170.456C280.675 170.011 280.102 169.788 279.368 169.788C278.866 169.788 278.416 169.895 278.018 170.108C277.625 170.321 277.315 170.634 277.088 171.045C276.866 171.453 276.754 171.945 276.754 172.523ZM295.13 179.241C294.438 179.241 293.813 179.114 293.255 178.858C292.696 178.598 292.253 178.221 291.926 177.729C291.605 177.236 291.444 176.633 291.444 175.918C291.444 175.302 291.562 174.795 291.799 174.398C292.035 174 292.355 173.685 292.757 173.453C293.16 173.221 293.61 173.046 294.107 172.928C294.604 172.809 295.111 172.719 295.627 172.658C296.28 172.582 296.81 172.52 297.218 172.473C297.625 172.421 297.921 172.338 298.105 172.224C298.29 172.111 298.382 171.926 298.382 171.67V171.621C298.382 171 298.207 170.52 297.857 170.179C297.511 169.838 296.995 169.668 296.309 169.668C295.594 169.668 295.03 169.826 294.618 170.143C294.211 170.456 293.929 170.804 293.773 171.188L291.777 170.733C292.014 170.07 292.36 169.535 292.814 169.128C293.274 168.716 293.801 168.418 294.398 168.233C294.995 168.044 295.622 167.949 296.28 167.949C296.716 167.949 297.177 168.001 297.665 168.105C298.158 168.205 298.617 168.389 299.043 168.659C299.474 168.929 299.827 169.315 300.101 169.817C300.376 170.314 300.513 170.96 300.513 171.756V179H298.439V177.509H298.354C298.217 177.783 298.011 178.053 297.736 178.318C297.462 178.583 297.109 178.804 296.678 178.979C296.247 179.154 295.731 179.241 295.13 179.241ZM295.591 177.537C296.178 177.537 296.68 177.421 297.097 177.189C297.518 176.957 297.838 176.654 298.056 176.28C298.278 175.901 298.39 175.496 298.39 175.065V173.659C298.314 173.735 298.167 173.806 297.949 173.872C297.736 173.934 297.492 173.988 297.218 174.036C296.943 174.078 296.676 174.118 296.415 174.156C296.155 174.189 295.937 174.218 295.762 174.241C295.35 174.294 294.973 174.381 294.632 174.504C294.296 174.627 294.026 174.805 293.823 175.037C293.624 175.264 293.525 175.567 293.525 175.946C293.525 176.472 293.719 176.869 294.107 177.139C294.495 177.404 294.99 177.537 295.591 177.537ZM305.465 172.523V179H303.342V168.091H305.38V169.866H305.515C305.766 169.289 306.159 168.825 306.694 168.474C307.234 168.124 307.913 167.949 308.732 167.949C309.476 167.949 310.127 168.105 310.685 168.418C311.244 168.725 311.677 169.185 311.985 169.795C312.293 170.406 312.447 171.161 312.447 172.061V179H310.323V172.317C310.323 171.526 310.117 170.908 309.705 170.463C309.293 170.013 308.728 169.788 308.008 169.788C307.515 169.788 307.077 169.895 306.694 170.108C306.315 170.321 306.014 170.634 305.792 171.045C305.574 171.453 305.465 171.945 305.465 172.523ZM325.289 179.22C324.215 179.22 323.289 178.991 322.512 178.531C321.741 178.067 321.144 177.416 320.723 176.578C320.306 175.735 320.098 174.748 320.098 173.616C320.098 172.499 320.306 171.514 320.723 170.662C321.144 169.81 321.731 169.144 322.484 168.666C323.242 168.188 324.127 167.949 325.14 167.949C325.756 167.949 326.352 168.051 326.93 168.254C327.508 168.458 328.026 168.777 328.485 169.213C328.945 169.649 329.307 170.214 329.572 170.911C329.837 171.602 329.97 172.442 329.97 173.432V174.185H321.298V172.594H327.889C327.889 172.035 327.775 171.54 327.548 171.109C327.321 170.674 327.001 170.33 326.589 170.08C326.182 169.829 325.704 169.703 325.154 169.703C324.558 169.703 324.037 169.85 323.592 170.143C323.152 170.432 322.811 170.811 322.569 171.28C322.333 171.744 322.214 172.248 322.214 172.793V174.036C322.214 174.765 322.342 175.385 322.598 175.896C322.858 176.408 323.22 176.798 323.684 177.068C324.148 177.333 324.69 177.466 325.311 177.466C325.713 177.466 326.08 177.409 326.412 177.295C326.743 177.177 327.029 177.002 327.271 176.77C327.512 176.538 327.697 176.251 327.825 175.911L329.835 176.273C329.674 176.865 329.385 177.383 328.968 177.828C328.556 178.268 328.038 178.612 327.413 178.858C326.793 179.099 326.085 179.22 325.289 179.22ZM341.346 168.091L337.39 179H335.117L331.154 168.091H333.434L336.197 176.486H336.31L339.066 168.091H341.346ZM347.672 179.22C346.597 179.22 345.672 178.991 344.895 178.531C344.123 178.067 343.527 177.416 343.105 176.578C342.689 175.735 342.48 174.748 342.48 173.616C342.48 172.499 342.689 171.514 343.105 170.662C343.527 169.81 344.114 169.144 344.867 168.666C345.624 168.188 346.51 167.949 347.523 167.949C348.139 167.949 348.735 168.051 349.313 168.254C349.891 168.458 350.409 168.777 350.868 169.213C351.328 169.649 351.69 170.214 351.955 170.911C352.22 171.602 352.353 172.442 352.353 173.432V174.185H343.681V172.594H350.272C350.272 172.035 350.158 171.54 349.931 171.109C349.703 170.674 349.384 170.33 348.972 170.08C348.565 169.829 348.087 169.703 347.537 169.703C346.941 169.703 346.42 169.85 345.975 170.143C345.534 170.432 345.194 170.811 344.952 171.28C344.715 171.744 344.597 172.248 344.597 172.793V174.036C344.597 174.765 344.725 175.385 344.98 175.896C345.241 176.408 345.603 176.798 346.067 177.068C346.531 177.333 347.073 177.466 347.694 177.466C348.096 177.466 348.463 177.409 348.794 177.295C349.126 177.177 349.412 177.002 349.654 176.77C349.895 176.538 350.08 176.251 350.208 175.911L352.218 176.273C352.057 176.865 351.768 177.383 351.351 177.828C350.939 178.268 350.421 178.612 349.796 178.858C349.176 179.099 348.468 179.22 347.672 179.22ZM356.832 172.523V179H354.709V168.091H356.747V169.866H356.882C357.133 169.289 357.526 168.825 358.061 168.474C358.601 168.124 359.28 167.949 360.099 167.949C360.843 167.949 361.494 168.105 362.053 168.418C362.611 168.725 363.045 169.185 363.352 169.795C363.66 170.406 363.814 171.161 363.814 172.061V179H361.69V172.317C361.69 171.526 361.484 170.908 361.072 170.463C360.661 170.013 360.095 169.788 359.375 169.788C358.883 169.788 358.445 169.895 358.061 170.108C357.682 170.321 357.382 170.634 357.159 171.045C356.941 171.453 356.832 171.945 356.832 172.523ZM371.754 168.091V169.795H365.795V168.091H371.754ZM367.393 165.477H369.517V175.797C369.517 176.209 369.579 176.519 369.702 176.727C369.825 176.931 369.983 177.071 370.178 177.146C370.376 177.217 370.592 177.253 370.824 177.253C370.994 177.253 371.143 177.241 371.271 177.217C371.399 177.194 371.499 177.175 371.57 177.161L371.953 178.915C371.83 178.962 371.655 179.009 371.428 179.057C371.2 179.109 370.916 179.137 370.575 179.142C370.017 179.152 369.496 179.052 369.013 178.844C368.53 178.635 368.139 178.313 367.841 177.878C367.543 177.442 367.393 176.895 367.393 176.237V165.477ZM381.52 164.455V179H379.396V164.455H381.52ZM384.377 179V168.091H386.5V179H384.377ZM385.449 166.408C385.08 166.408 384.763 166.285 384.498 166.038C384.237 165.787 384.107 165.489 384.107 165.143C384.107 164.793 384.237 164.495 384.498 164.249C384.763 163.998 385.08 163.872 385.449 163.872C385.819 163.872 386.133 163.998 386.394 164.249C386.659 164.495 386.792 164.793 386.792 165.143C386.792 165.489 386.659 165.787 386.394 166.038C386.133 166.285 385.819 166.408 385.449 166.408ZM397.532 170.754L395.607 171.095C395.527 170.849 395.399 170.615 395.224 170.392C395.053 170.17 394.821 169.987 394.528 169.845C394.234 169.703 393.867 169.632 393.427 169.632C392.826 169.632 392.324 169.767 391.921 170.037C391.519 170.302 391.317 170.645 391.317 171.067C391.317 171.431 391.452 171.725 391.722 171.947C391.992 172.17 392.428 172.352 393.029 172.494L394.762 172.892C395.766 173.124 396.514 173.482 397.006 173.964C397.499 174.447 397.745 175.075 397.745 175.847C397.745 176.5 397.556 177.082 397.177 177.594C396.803 178.1 396.28 178.498 395.607 178.787C394.94 179.076 394.165 179.22 393.285 179.22C392.063 179.22 391.067 178.96 390.295 178.439C389.523 177.913 389.049 177.168 388.874 176.202L390.927 175.889C391.055 176.424 391.317 176.829 391.715 177.104C392.113 177.374 392.631 177.509 393.271 177.509C393.967 177.509 394.523 177.364 394.94 177.075C395.356 176.782 395.565 176.424 395.565 176.003C395.565 175.662 395.437 175.375 395.181 175.143C394.93 174.911 394.544 174.736 394.023 174.618L392.177 174.213C391.159 173.981 390.406 173.612 389.918 173.105C389.435 172.598 389.194 171.957 389.194 171.18C389.194 170.536 389.374 169.973 389.734 169.49C390.094 169.007 390.591 168.631 391.225 168.361C391.86 168.086 392.586 167.949 393.406 167.949C394.585 167.949 395.513 168.205 396.19 168.716C396.867 169.223 397.314 169.902 397.532 170.754ZM405.172 168.091V169.795H399.213V168.091H405.172ZM400.811 165.477H402.935V175.797C402.935 176.209 402.997 176.519 403.12 176.727C403.243 176.931 403.401 177.071 403.596 177.146C403.794 177.217 404.01 177.253 404.242 177.253C404.412 177.253 404.561 177.241 404.689 177.217C404.817 177.194 404.917 177.175 404.988 177.161L405.371 178.915C405.248 178.962 405.073 179.009 404.846 179.057C404.618 179.109 404.334 179.137 403.993 179.142C403.435 179.152 402.914 179.052 402.431 178.844C401.948 178.635 401.557 178.313 401.259 177.878C400.961 177.442 400.811 176.895 400.811 176.237V165.477ZM412.106 179.22C411.031 179.22 410.105 178.991 409.329 178.531C408.557 178.067 407.96 177.416 407.539 176.578C407.122 175.735 406.914 174.748 406.914 173.616C406.914 172.499 407.122 171.514 407.539 170.662C407.96 169.81 408.548 169.144 409.3 168.666C410.058 168.188 410.943 167.949 411.957 167.949C412.572 167.949 413.169 168.051 413.746 168.254C414.324 168.458 414.843 168.777 415.302 169.213C415.761 169.649 416.123 170.214 416.388 170.911C416.654 171.602 416.786 172.442 416.786 173.432V174.185H408.114V172.594H414.705C414.705 172.035 414.592 171.54 414.364 171.109C414.137 170.674 413.817 170.33 413.406 170.08C412.998 169.829 412.52 169.703 411.971 169.703C411.374 169.703 410.853 169.85 410.408 170.143C409.968 170.432 409.627 170.811 409.386 171.28C409.149 171.744 409.031 172.248 409.031 172.793V174.036C409.031 174.765 409.158 175.385 409.414 175.896C409.674 176.408 410.037 176.798 410.501 177.068C410.965 177.333 411.507 177.466 412.127 177.466C412.53 177.466 412.897 177.409 413.228 177.295C413.559 177.177 413.846 177.002 414.087 176.77C414.329 176.538 414.513 176.251 414.641 175.911L416.651 176.273C416.49 176.865 416.201 177.383 415.785 177.828C415.373 178.268 414.854 178.612 414.229 178.858C413.609 179.099 412.901 179.22 412.106 179.22ZM421.266 172.523V179H419.142V168.091H421.181V169.866H421.316C421.567 169.289 421.96 168.825 422.495 168.474C423.034 168.124 423.714 167.949 424.533 167.949C425.276 167.949 425.927 168.105 426.486 168.418C427.045 168.725 427.478 169.185 427.786 169.795C428.094 170.406 428.248 171.161 428.248 172.061V179H426.124V172.317C426.124 171.526 425.918 170.908 425.506 170.463C425.094 170.013 424.528 169.788 423.809 169.788C423.316 169.788 422.878 169.895 422.495 170.108C422.116 170.321 421.815 170.634 421.593 171.045C421.375 171.453 421.266 171.945 421.266 172.523ZM435.797 179.22C434.722 179.22 433.797 178.991 433.02 178.531C432.248 178.067 431.652 177.416 431.23 176.578C430.814 175.735 430.605 174.748 430.605 173.616C430.605 172.499 430.814 171.514 431.23 170.662C431.652 169.81 432.239 169.144 432.992 168.666C433.749 168.188 434.635 167.949 435.648 167.949C436.264 167.949 436.86 168.051 437.438 168.254C438.016 168.458 438.534 168.777 438.993 169.213C439.453 169.649 439.815 170.214 440.08 170.911C440.345 171.602 440.478 172.442 440.478 173.432V174.185H431.806V172.594H438.397C438.397 172.035 438.283 171.54 438.056 171.109C437.828 170.674 437.509 170.33 437.097 170.08C436.69 169.829 436.212 169.703 435.662 169.703C435.066 169.703 434.545 169.85 434.1 170.143C433.659 170.432 433.319 170.811 433.077 171.28C432.84 171.744 432.722 172.248 432.722 172.793V174.036C432.722 174.765 432.85 175.385 433.105 175.896C433.366 176.408 433.728 176.798 434.192 177.068C434.656 177.333 435.198 177.466 435.819 177.466C436.221 177.466 436.588 177.409 436.919 177.295C437.251 177.177 437.537 177.002 437.779 176.77C438.02 176.538 438.205 176.251 438.333 175.911L440.343 176.273C440.182 176.865 439.893 177.383 439.476 177.828C439.064 178.268 438.546 178.612 437.921 178.858C437.301 179.099 436.593 179.22 435.797 179.22ZM442.834 179V168.091H444.886V169.824H445C445.199 169.237 445.549 168.775 446.051 168.439C446.558 168.098 447.131 167.928 447.77 167.928C447.902 167.928 448.059 167.932 448.239 167.942C448.423 167.951 448.568 167.963 448.672 167.977V170.009C448.587 169.985 448.435 169.959 448.217 169.93C448 169.897 447.782 169.881 447.564 169.881C447.062 169.881 446.615 169.987 446.222 170.2C445.833 170.409 445.526 170.7 445.298 171.074C445.071 171.443 444.957 171.865 444.957 172.338V179H442.834Z" fill="#2A23B2"/>
<path d="M293.918 207.656H290.185C290.116 207.173 289.977 206.744 289.767 206.369C289.557 205.989 289.287 205.665 288.957 205.398C288.628 205.131 288.247 204.926 287.815 204.784C287.389 204.642 286.926 204.571 286.426 204.571C285.523 204.571 284.736 204.795 284.065 205.244C283.395 205.687 282.875 206.335 282.506 207.188C282.136 208.034 281.952 209.062 281.952 210.273C281.952 211.517 282.136 212.562 282.506 213.409C282.881 214.256 283.403 214.895 284.074 215.327C284.744 215.759 285.52 215.974 286.401 215.974C286.895 215.974 287.352 215.909 287.773 215.778C288.199 215.648 288.577 215.457 288.906 215.207C289.236 214.952 289.509 214.642 289.724 214.278C289.946 213.915 290.099 213.5 290.185 213.034L293.918 213.051C293.821 213.852 293.58 214.625 293.193 215.369C292.813 216.108 292.298 216.77 291.651 217.355C291.009 217.935 290.241 218.395 289.349 218.736C288.463 219.071 287.46 219.239 286.341 219.239C284.784 219.239 283.392 218.886 282.165 218.182C280.943 217.477 279.977 216.457 279.267 215.122C278.562 213.787 278.21 212.17 278.21 210.273C278.21 208.369 278.568 206.75 279.284 205.415C280 204.08 280.972 203.062 282.199 202.364C283.426 201.659 284.807 201.307 286.341 201.307C287.352 201.307 288.29 201.449 289.153 201.733C290.023 202.017 290.793 202.432 291.463 202.977C292.134 203.517 292.679 204.179 293.099 204.963C293.526 205.747 293.798 206.645 293.918 207.656ZM300.126 201.545V219H296.496V201.545H300.126ZM303.035 219V205.909H306.665V219H303.035ZM304.859 204.222C304.319 204.222 303.856 204.043 303.469 203.685C303.089 203.321 302.898 202.886 302.898 202.381C302.898 201.881 303.089 201.452 303.469 201.094C303.856 200.73 304.319 200.548 304.859 200.548C305.398 200.548 305.859 200.73 306.239 201.094C306.626 201.452 306.819 201.881 306.819 202.381C306.819 202.886 306.626 203.321 306.239 203.685C305.859 204.043 305.398 204.222 304.859 204.222ZM315.489 219.256C314.148 219.256 312.994 218.972 312.028 218.403C311.068 217.83 310.33 217.034 309.812 216.017C309.301 215 309.045 213.83 309.045 212.506C309.045 211.165 309.304 209.989 309.821 208.977C310.344 207.96 311.085 207.168 312.045 206.599C313.006 206.026 314.148 205.739 315.472 205.739C316.614 205.739 317.614 205.946 318.472 206.361C319.33 206.776 320.009 207.358 320.509 208.108C321.009 208.858 321.284 209.739 321.335 210.75H317.909C317.813 210.097 317.557 209.571 317.142 209.173C316.733 208.77 316.196 208.568 315.531 208.568C314.969 208.568 314.477 208.722 314.057 209.028C313.642 209.33 313.318 209.77 313.085 210.349C312.852 210.929 312.736 211.631 312.736 212.455C312.736 213.29 312.849 214 313.077 214.585C313.31 215.17 313.636 215.616 314.057 215.923C314.477 216.23 314.969 216.384 315.531 216.384C315.946 216.384 316.318 216.298 316.648 216.128C316.983 215.957 317.259 215.71 317.474 215.386C317.696 215.057 317.841 214.662 317.909 214.202H321.335C321.278 215.202 321.006 216.082 320.517 216.844C320.034 217.599 319.366 218.19 318.514 218.616C317.662 219.043 316.653 219.256 315.489 219.256ZM326.95 215.233L326.958 210.878H327.487L331.68 205.909H335.847L330.214 212.489H329.353L326.95 215.233ZM323.66 219V201.545H327.29V219H323.66ZM331.842 219L327.989 213.298L330.41 210.733L336.094 219H331.842ZM343.183 219V205.909H346.643V208.219H346.797C347.07 207.452 347.524 206.847 348.161 206.403C348.797 205.96 349.558 205.739 350.445 205.739C351.342 205.739 352.107 205.963 352.737 206.412C353.368 206.855 353.788 207.457 353.999 208.219H354.135C354.402 207.469 354.885 206.869 355.584 206.42C356.288 205.966 357.121 205.739 358.081 205.739C359.303 205.739 360.294 206.128 361.055 206.906C361.822 207.679 362.206 208.776 362.206 210.196V219H358.584V210.912C358.584 210.185 358.391 209.639 358.004 209.276C357.618 208.912 357.135 208.73 356.555 208.73C355.896 208.73 355.382 208.94 355.013 209.361C354.643 209.776 354.459 210.324 354.459 211.006V219H350.939V210.835C350.939 210.193 350.754 209.682 350.385 209.301C350.021 208.92 349.541 208.73 348.945 208.73C348.541 208.73 348.178 208.832 347.854 209.037C347.536 209.236 347.283 209.517 347.095 209.881C346.908 210.239 346.814 210.659 346.814 211.142V219H343.183ZM371.04 219.256C369.693 219.256 368.534 218.983 367.562 218.438C366.597 217.886 365.852 217.108 365.33 216.102C364.807 215.091 364.545 213.895 364.545 212.514C364.545 211.168 364.807 209.986 365.33 208.969C365.852 207.952 366.588 207.159 367.537 206.591C368.491 206.023 369.611 205.739 370.895 205.739C371.759 205.739 372.563 205.878 373.307 206.156C374.057 206.429 374.71 206.841 375.267 207.392C375.83 207.943 376.267 208.636 376.58 209.472C376.892 210.301 377.048 211.273 377.048 212.386V213.384H365.994V211.134H373.631C373.631 210.611 373.517 210.148 373.29 209.744C373.063 209.341 372.747 209.026 372.344 208.798C371.946 208.565 371.483 208.449 370.955 208.449C370.403 208.449 369.915 208.577 369.489 208.832C369.068 209.082 368.739 209.42 368.5 209.847C368.261 210.267 368.139 210.736 368.134 211.253V213.392C368.134 214.04 368.253 214.599 368.491 215.071C368.736 215.543 369.08 215.906 369.523 216.162C369.966 216.418 370.491 216.545 371.099 216.545C371.503 216.545 371.872 216.489 372.207 216.375C372.543 216.261 372.83 216.091 373.068 215.864C373.307 215.636 373.489 215.358 373.614 215.028L376.972 215.25C376.801 216.057 376.452 216.761 375.923 217.364C375.401 217.96 374.724 218.426 373.895 218.761C373.071 219.091 372.119 219.256 371.04 219.256Z" fill="#EDF0ED"/>
<rect x="3" y="3" width="59.375" height="30" rx="3" fill="#3C3535"/>
<rect x="3.5" y="3.5" width="58.375" height="29" rx="2.5" stroke="white" stroke-opacity="0.0980392"/>
<path d="M14.3438 15C14.2969 14.6042 14.1068 14.2969 13.7734 14.0781C13.4401 13.8594 13.0313 13.75 12.5469 13.75C12.1927 13.75 11.8828 13.8073 11.6172 13.9219C11.3542 14.0365 11.1484 14.194 11 14.3945C10.8542 14.5951 10.7813 14.8229 10.7813 15.0781C10.7813 15.2917 10.832 15.4753 10.9336 15.6289C11.0378 15.7799 11.1706 15.9062 11.332 16.0078C11.4935 16.1068 11.6628 16.1888 11.8398 16.2539C12.0169 16.3164 12.1797 16.3672 12.3281 16.4062L13.1406 16.625C13.349 16.6797 13.5807 16.7552 13.8359 16.8516C14.0938 16.9479 14.3398 17.0794 14.5742 17.2461C14.8112 17.4102 15.0065 17.6211 15.1602 17.8789C15.3138 18.1367 15.3906 18.4531 15.3906 18.8281C15.3906 19.2604 15.2773 19.651 15.0508 20C14.8268 20.349 14.4987 20.6263 14.0664 20.832C13.6367 21.0378 13.1146 21.1406 12.5 21.1406C11.9271 21.1406 11.431 21.0482 11.0117 20.8633C10.5951 20.6784 10.2669 20.4206 10.0273 20.0898C9.79036 19.7591 9.65625 19.375 9.625 18.9375H10.625C10.651 19.2396 10.7526 19.4896 10.9297 19.6875C11.1094 19.8828 11.3359 20.0286 11.6094 20.125C11.8854 20.2187 12.1823 20.2656 12.5 20.2656C12.8698 20.2656 13.2018 20.2057 13.4961 20.0859C13.7904 19.9635 14.0234 19.7943 14.1953 19.5781C14.3672 19.3594 14.4531 19.1042 14.4531 18.8125C14.4531 18.5469 14.3789 18.3307 14.2305 18.1641C14.082 17.9974 13.8867 17.862 13.6445 17.7578C13.4023 17.6536 13.1406 17.5625 12.8594 17.4844L11.875 17.2031C11.25 17.0234 10.7552 16.7669 10.3906 16.4336C10.026 16.1003 9.84375 15.6641 9.84375 15.125C9.84375 14.6771 9.96484 14.2865 10.207 13.9531C10.4518 13.6172 10.7799 13.3568 11.1914 13.1719C11.6055 12.9844 12.0677 12.8906 12.5781 12.8906C13.0938 12.8906 13.5521 12.9831 13.9531 13.168C14.3542 13.3503 14.6719 13.6003 14.9062 13.918C15.1432 14.2357 15.2682 14.5964 15.2813 15H14.3438ZM19.374 21.125C18.7959 21.125 18.2972 20.9974 17.8779 20.7422C17.4613 20.4844 17.1396 20.125 16.9131 19.6641C16.6891 19.2005 16.5771 18.6615 16.5771 18.0469C16.5771 17.4323 16.6891 16.8906 16.9131 16.4219C17.1396 15.9505 17.4548 15.5833 17.8584 15.3203C18.2646 15.0547 18.7386 14.9219 19.2803 14.9219C19.5928 14.9219 19.9014 14.974 20.2061 15.0781C20.5107 15.1823 20.7881 15.3516 21.0381 15.5859C21.2881 15.8177 21.4873 16.125 21.6357 16.5078C21.7842 16.8906 21.8584 17.362 21.8584 17.9219V18.3125H17.2334V17.5156H20.9209C20.9209 17.1771 20.8532 16.875 20.7178 16.6094C20.585 16.3437 20.3949 16.1341 20.1475 15.9805C19.9027 15.8268 19.6136 15.75 19.2803 15.75C18.9131 15.75 18.5954 15.8411 18.3271 16.0234C18.0615 16.2031 17.8571 16.4375 17.7139 16.7266C17.5706 17.0156 17.499 17.3255 17.499 17.6562V18.1875C17.499 18.6406 17.5771 19.0247 17.7334 19.3398C17.8923 19.6523 18.1123 19.8906 18.3936 20.0547C18.6748 20.2161 19.0016 20.2969 19.374 20.2969C19.6162 20.2969 19.835 20.263 20.0303 20.1953C20.2282 20.125 20.3988 20.0208 20.542 19.8828C20.6852 19.7422 20.7959 19.5677 20.874 19.3594L21.7646 19.6094C21.6709 19.9115 21.5133 20.1771 21.292 20.4062C21.0706 20.6328 20.7972 20.8099 20.4717 20.9375C20.1462 21.0625 19.7803 21.125 19.374 21.125ZM25.6982 21.125C25.1357 21.125 24.6514 20.9922 24.2451 20.7266C23.8389 20.4609 23.5264 20.0951 23.3076 19.6289C23.0889 19.1628 22.9795 18.6302 22.9795 18.0312C22.9795 17.4219 23.0915 16.8841 23.3154 16.418C23.542 15.9492 23.8571 15.5833 24.2607 15.3203C24.667 15.0547 25.141 14.9219 25.6826 14.9219C26.1045 14.9219 26.4847 15 26.8232 15.1562C27.1618 15.3125 27.4391 15.5312 27.6553 15.8125C27.8714 16.0937 28.0055 16.4219 28.0576 16.7969H27.1357C27.0654 16.5234 26.9092 16.2812 26.667 16.0703C26.4274 15.8568 26.1045 15.75 25.6982 15.75C25.3389 15.75 25.0238 15.8437 24.7529 16.0312C24.4847 16.2161 24.2751 16.4779 24.124 16.8164C23.9756 17.1523 23.9014 17.5469 23.9014 18C23.9014 18.4635 23.9743 18.8672 24.1201 19.2109C24.2686 19.5547 24.4769 19.8216 24.7451 20.0117C25.016 20.2018 25.3337 20.2969 25.6982 20.2969C25.9378 20.2969 26.1553 20.2552 26.3506 20.1719C26.5459 20.0885 26.7113 19.9688 26.8467 19.8125C26.9821 19.6562 27.0785 19.4687 27.1357 19.25H28.0576C28.0055 19.6042 27.8766 19.9232 27.6709 20.207C27.4678 20.4883 27.1982 20.7122 26.8623 20.8789C26.529 21.043 26.141 21.125 25.6982 21.125ZM32.0146 15V15.7812H28.9053V15H32.0146ZM29.8115 13.5625H30.7334V19.2812C30.7334 19.5417 30.7712 19.737 30.8467 19.8672C30.9248 19.9948 31.0238 20.0807 31.1436 20.125C31.266 20.1667 31.3949 20.1875 31.5303 20.1875C31.6318 20.1875 31.7152 20.1823 31.7803 20.1719C31.8454 20.1589 31.8975 20.1484 31.9365 20.1406L32.124 20.9687C32.0615 20.9922 31.9743 21.0156 31.8623 21.0391C31.7503 21.0651 31.6084 21.0781 31.4365 21.0781C31.1761 21.0781 30.9209 21.0221 30.6709 20.9102C30.4235 20.7982 30.2178 20.6276 30.0537 20.3984C29.8923 20.1693 29.8115 19.8802 29.8115 19.5312V13.5625ZM33.4014 21V15H34.3232V21H33.4014ZM33.8701 14C33.6904 14 33.5355 13.9388 33.4053 13.8164C33.2777 13.694 33.2139 13.5469 33.2139 13.375C33.2139 13.2031 33.2777 13.056 33.4053 12.9336C33.5355 12.8112 33.6904 12.75 33.8701 12.75C34.0498 12.75 34.2035 12.8112 34.3311 12.9336C34.4613 13.056 34.5264 13.2031 34.5264 13.375C34.5264 13.5469 34.4613 13.694 34.3311 13.8164C34.2035 13.9388 34.0498 14 33.8701 14ZM38.4492 21.125C37.9076 21.125 37.4323 20.9961 37.0234 20.7383C36.6172 20.4805 36.2995 20.1198 36.0703 19.6562C35.8438 19.1927 35.7305 18.651 35.7305 18.0312C35.7305 17.4062 35.8438 16.8607 36.0703 16.3945C36.2995 15.9284 36.6172 15.5664 37.0234 15.3086C37.4323 15.0508 37.9076 14.9219 38.4492 14.9219C38.9909 14.9219 39.4648 15.0508 39.8711 15.3086C40.2799 15.5664 40.5977 15.9284 40.8242 16.3945C41.0534 16.8607 41.168 17.4062 41.168 18.0312C41.168 18.651 41.0534 19.1927 40.8242 19.6562C40.5977 20.1198 40.2799 20.4805 39.8711 20.7383C39.4648 20.9961 38.9909 21.125 38.4492 21.125ZM38.4492 20.2969C38.8607 20.2969 39.1992 20.1914 39.4648 19.9805C39.7305 19.7695 39.9271 19.4922 40.0547 19.1484C40.1823 18.8047 40.2461 18.4323 40.2461 18.0312C40.2461 17.6302 40.1823 17.2565 40.0547 16.9102C39.9271 16.5638 39.7305 16.2839 39.4648 16.0703C39.1992 15.8568 38.8607 15.75 38.4492 15.75C38.0378 15.75 37.6992 15.8568 37.4336 16.0703C37.168 16.2839 36.9714 16.5638 36.8438 16.9102C36.7161 17.2565 36.6523 17.6302 36.6523 18.0312C36.6523 18.4323 36.7161 18.8047 36.8438 19.1484C36.9714 19.4922 37.168 19.7695 37.4336 19.9805C37.6992 20.1914 38.0378 20.2969 38.4492 20.2969ZM43.4971 17.3906V21H42.5752V15H43.4658V15.9375H43.5439C43.6846 15.6328 43.8981 15.388 44.1846 15.2031C44.471 15.0156 44.8408 14.9219 45.2939 14.9219C45.7002 14.9219 46.0557 15.0052 46.3604 15.1719C46.665 15.3359 46.902 15.5859 47.0713 15.9219C47.2406 16.2552 47.3252 16.6771 47.3252 17.1875V21H46.4033V17.25C46.4033 16.7786 46.2809 16.4115 46.0361 16.1484C45.7913 15.8828 45.4554 15.75 45.0283 15.75C44.734 15.75 44.471 15.8138 44.2393 15.9414C44.0101 16.069 43.8291 16.2552 43.6963 16.5C43.5635 16.7448 43.4971 17.0417 43.4971 17.3906ZM54.9004 13V21H53.9316V14.0156H53.8848L51.9316 15.3125V14.3281L53.9316 13H54.9004Z" fill="white"/>
<defs>
<filter id="filter0_d_0_1" x="85" y="100" width="480" height="222" filterUnits="userSpaceOnUse" color-interpolation-filters="sRGB">
<feFlood flood-opacity="0" result="BackgroundImageFix"/>
<feColorMatrix in="SourceAlpha" type="matrix" values="0 0 0 0 0 0 0 0 0 0 0 0 0 0 0 0 0 0 127 0" result="hardAlpha"/>
<feOffset dy="4"/>
<feGaussianBlur stdDeviation="2"/>
<feComposite in2="hardAlpha" operator="out"/>
<feColorMatrix type="matrix" values="0 0 0 0 0 0 0 0 0 0 0 0 0 0 0 0 0 0 0.25 0"/>
<feBlend mode="normal" in2="BackgroundImageFix" result="effect1_dropShadow_0_1"/>
<feBlend mode="normal" in="SourceGraphic" in2="effect1_dropShadow_0_1" result="shape"/>
</filter>
<filter id="filter1_d_0_1" x="125" y="139" width="405" height="154" filterUnits="userSpaceOnUse" color-interpolation-filters="sRGB">
<feFlood flood-opacity="0" result="BackgroundImageFix"/>
<feColorMatrix in="SourceAlpha" type="matrix" values="0 0 0 0 0 0 0 0 0 0 0 0 0 0 0 0 0 0 127 0" result="hardAlpha"/>
<feOffset dy="4"/>
<feGaussianBlur stdDeviation="2"/>
<feComposite in2="hardAlpha" operator="out"/>
<feColorMatrix type="matrix" values="0 0 0 0 0 0 0 0 0 0 0 0 0 0 0 0 0 0 0.25 0"/>
<feBlend mode="normal" in2="BackgroundImageFix" result="effect1_dropShadow_0_1"/>
<feBlend mode="normal" in="SourceGraphic" in2="effect1_dropShadow_0_1" result="shape"/>
</filter>
<filter id="filter2_d_0_1" x="229" y="185" width="182" height="58" filterUnits="userSpaceOnUse" color-interpolation-filters="sRGB">
<feFlood flood-opacity="0" result="BackgroundImageFix"/>
<feColorMatrix in="SourceAlpha" type="matrix" values="0 0 0 0 0 0 0 0 0 0 0 0 0 0 0 0 0 0 127 0" result="hardAlpha"/>
<feOffset dy="4"/>
<feGaussianBlur stdDeviation="2"/>
<feComposite in2="hardAlpha" operator="out"/>
<feColorMatrix type="matrix" values="0 0 0 0 0 0 0 0 0 0 0 0 0 0 0 0 0 0 0.25 0"/>
<feBlend mode="normal" in2="BackgroundImageFix" result="effect1_dropShadow_0_1"/>
<feBlend mode="normal" in="SourceGraphic" in2="effect1_dropShadow_0_1" result="shape"/>
</filter>
</defs>
</svg>
